<?xml version="1.0" encoding="utf-8"?>
<!-- Generator: Adobe Illustrator 25.3.1, SVG Export Plug-In . SVG Version: 6.00 Build 0)  -->
<svg version="1.0" id="图层_1" xmlns="http://www.w3.org/2000/svg" xmlns:xlink="http://www.w3.org/1999/xlink" x="0px" y="0px"
	 viewBox="0 0 500 500" style="enable-background:new 0 0 500 500;" xml:space="preserve">
<style type="text/css">
	.st0{fill:#353738;}
	.st1{fill:#FFFFFF;}
</style>
<path class="st0" d="M249.8,12.6c-131,0-237.6,106.6-237.6,237.6c0,131,106.6,237.6,237.6,237.6s237.6-106.6,237.6-237.6
	C487.3,119.2,380.8,12.6,249.8,12.6z M249.8,481.6c-49.8,0-95.8-15.9-133.6-42.7V61.4c37.8-26.8,83.8-42.7,133.6-42.7
	c127.8,0,231.4,103.6,231.4,231.4S377.6,481.6,249.8,481.6z"/>
<g>
	<path class="st1" d="M378.7,417.6l-6.8-6.8V388h-21.2v1.7l-63.2-63.2l63.2-63.2v1.7h21.2v-22.9l11.4-11.4l-11.4-11.4V53.9
		c-6.8-4.3-13.9-8.1-21.2-11.7v155.8L325,172.3L232.3,265H168v82.6h23.9l124.3,124.3c4.3-1.3,8.5-2.8,12.7-4.4l21.9-21.9v12.6
		c7.3-3.5,14.3-7.4,21.2-11.7v-22.1L378.7,417.6z"/>
	<path class="st1" d="M116.1,61.4V439c6.8,4.8,13.8,9.4,21.2,13.4V48C130,52.1,123,56.6,116.1,61.4z"/>
</g>
</svg>
