<?xml version="1.0" encoding="utf-8"?>
<!-- Generator: Adobe Illustrator 25.3.1, SVG Export Plug-In . SVG Version: 6.00 Build 0)  -->
<svg version="1.0" id="图层_1" xmlns="http://www.w3.org/2000/svg" xmlns:xlink="http://www.w3.org/1999/xlink" x="0px" y="0px"
	 viewBox="0 0 500 500" style="enable-background:new 0 0 500 500;" xml:space="preserve">
<style type="text/css">
	.st0{fill:#272828;}
	.st1{fill:#FFFFFF;}
</style>
<path class="st0" d="M250,0.7C112.5,0.7,0.7,112.5,0.7,250c0,137.5,111.8,249.3,249.3,249.3S499.3,387.5,499.3,250
	C499.3,112.5,387.5,0.7,250,0.7z M250,488.2c-51.3,0-98.6-16.4-137.5-43.9V55.8c38.9-27.6,86.2-43.9,137.5-43.9
	c131.5,0,238.2,106.6,238.2,238.2S381.5,488.2,250,488.2z"/>
<path class="st1" d="M394.3,250.1l57.2-99.2c-13.8-27.9-33-52.6-56.6-72.5h-18.6h-58.5L306.6,98l-20.4,35.4l-8.8,15.3l-29.3,50.7
	l-38.1-66l-31.8-55h-58.5v0l31.8,55l67.3,116.7l-67.3,116.5l-31.8,55h58.5l31.8-55l38-65.9l29.3-50.7l29.3-50.7l29.3-50.7l8.8-15.3
	h58.5l-38.1,66l-29.3,50.7l29.3,50.7l38,65.9h-58.5l-8.8-15.2l-29.3-50.7l-29.3,50.7l8.8,15.2l20.5,35.5l11.3,19.6h58.5H395
	c23.5-19.9,42.8-44.6,56.6-72.5L394.3,250.1z"/>
</svg>
