<?xml version="1.0" encoding="utf-8"?>
<!-- Generator: Adobe Illustrator 25.3.1, SVG Export Plug-In . SVG Version: 6.00 Build 0)  -->
<svg version="1.0" id="图层_1" xmlns="http://www.w3.org/2000/svg" xmlns:xlink="http://www.w3.org/1999/xlink" x="0px" y="0px"
	 viewBox="0 0 500 500" style="enable-background:new 0 0 500 500;" xml:space="preserve">
<style type="text/css">
	.st0{fill:#38D88D;}
	.st1{fill:#E8EAE8;}
</style>
<g>
	<path class="st0" d="M463.5,70.6c-18.8,0-34.1-15.3-34.1-34.1s15.3-34.1,34.1-34.1s34.1,15.3,34.1,34.1S482.4,70.6,463.5,70.6z
		 M463.5,13.3c-12.8,0-23.2,10.4-23.2,23.2s10.4,23.2,23.2,23.2c12.8,0,23.2-10.4,23.2-23.2S476.3,13.3,463.5,13.3z"/>
</g>
<ellipse transform="matrix(0.7071 -0.7071 0.7071 0.7071 -103.5535 249.9994)" class="st1" cx="250" cy="250" rx="236.6" ry="236.6"/>
<path class="st0" d="M250,2.4C113.4,2.4,2.4,113.4,2.4,250c0,136.6,111.1,247.6,247.6,247.6S497.6,386.6,497.6,250
	C497.6,113.4,386.6,2.4,250,2.4z M135.1,456.6V43.4c34-19,73.2-30,114.9-30c37,0,72.1,8.5,103.3,23.7v159.6l-26.4-26.4l-94.8,94.8
	h-65.7v84.4h24.4L318,476.6c-21.5,6.5-44.4,9.9-68,9.9C208.2,486.6,169.1,475.6,135.1,456.6z M330.8,472.4l22.5-22.7l0.1,13.2
	C346,466.4,338.5,469.6,330.8,472.4z M375,450.8l-0.1-22.8l6.9-6.9l-6.9-6.9v-23.4h-21.6v1.7l-64.6-64.6l64.6-64.6v1.8h21.6v-23.4
	l11.7-11.7l-11.7-11.7V49.1c67,41.8,111.7,116.1,111.7,200.9C486.6,334.7,442,409.1,375,450.8z"/>
</svg>
