<?xml version="1.0" encoding="utf-8"?>
<!-- Generator: Adobe Illustrator 25.3.1, SVG Export Plug-In . SVG Version: 6.00 Build 0)  -->
<svg version="1.0" id="图层_1" xmlns="http://www.w3.org/2000/svg" xmlns:xlink="http://www.w3.org/1999/xlink" x="0px" y="0px"
	 viewBox="0 0 500 500" style="enable-background:new 0 0 500 500;" xml:space="preserve">
<style type="text/css">
	.st0{fill:#272828;}
	.st1{fill:#FFFFFF;}
</style>
<path class="st0" d="M250,2.7C113.6,2.7,2.7,113.6,2.7,250c0,136.4,111,247.3,247.3,247.3s247.3-111,247.3-247.3
	C497.3,113.6,386.4,2.7,250,2.7z M250,486.3c-50.9,0-97.8-16.2-136.4-43.6V57.3C152.2,30,199.1,13.7,250,13.7
	c130.5,0,236.3,105.8,236.3,236.3S380.5,486.3,250,486.3z"/>
<g>
	<path class="st1" d="M381.7,420.9l-6.9-6.9v-23.3h-21.6v1.7l-64.5-64.5l64.5-64.5v1.8h21.6v-23.4l11.7-11.7l-11.7-11.7V49.6
		c-7-4.3-14.2-8.3-21.6-11.9v159.1l-26.3-26.3l-94.6,94.6h-65.6v84.3h24.4l126.9,126.9c4.4-1.3,8.6-2.9,12.9-4.5l22.4-22.4v12.9
		c7.4-3.6,14.6-7.6,21.6-11.9v-22.6L381.7,420.9z"/>
	<path class="st1" d="M113.6,57.3v385.4c7,4.9,14.1,9.6,21.6,13.7V43.6C127.7,47.7,120.6,52.4,113.6,57.3z"/>
</g>
</svg>
