<?xml version="1.0" encoding="utf-8"?>
<!-- Generator: Adobe Illustrator 25.3.1, SVG Export Plug-In . SVG Version: 6.00 Build 0)  -->
<svg version="1.0" id="图层_1" xmlns="http://www.w3.org/2000/svg" xmlns:xlink="http://www.w3.org/1999/xlink" x="0px" y="0px"
	 viewBox="0 0 500 500" style="enable-background:new 0 0 500 500;" xml:space="preserve">
<style type="text/css">
	.st0{fill:#FFFFFF;}
	.st1{fill:#1890FF;}
</style>
<g>
	<path class="st0" d="M463.5,70.6c-18.8,0-34.1-15.3-34.1-34.1s15.3-34.1,34.1-34.1s34.1,15.3,34.1,34.1S482.4,70.6,463.5,70.6z
		 M463.5,13.3c-12.8,0-23.2,10.4-23.2,23.2s10.4,23.2,23.2,23.2c12.8,0,23.2-10.4,23.2-23.2S476.3,13.3,463.5,13.3z"/>
</g>
<g>
	<path class="st1" d="M381.8,421.1l-6.9-6.9v-23.4h-21.6v1.7l-64.6-64.6l64.6-64.6v1.8h21.6v-23.4l11.7-11.7l-11.7-11.7V46
		c-7-4.4-14.2-8.3-21.6-11.9v162.6l-26.4-26.4l-94.8,94.8h-65.7v84.4h24.4L318,476.7c4.4-1.3,8.4-2.7,12.6-4.3l22.6-22.8v14.6
		c7.4-3.6,14.7-7.6,21.6-11.9V428L381.8,421.1z"/>
	<path class="st1" d="M113.4,57.1v385.9c7,4.9,14.1,9.6,21.6,13.7V43.3C127.6,47.5,120.4,52.1,113.4,57.1z"/>
</g>
<path class="st0" d="M250,2.4C113.4,2.4,2.4,113.4,2.4,250c0,136.6,111.1,247.6,247.6,247.6S497.6,386.6,497.6,250
	C497.6,113.4,386.6,2.4,250,2.4z M250,486.6c-50.9,0-98-16.2-136.6-43.6V57.1C152,29.7,199.1,13.4,250,13.4
	c130.6,0,236.6,105.9,236.6,236.6S380.6,486.6,250,486.6z"/>
</svg>
