<?xml version="1.0" encoding="utf-8"?>
<!-- Generator: Adobe Illustrator 25.3.1, SVG Export Plug-In . SVG Version: 6.00 Build 0)  -->
<svg version="1.0" id="图层_1" xmlns="http://www.w3.org/2000/svg" xmlns:xlink="http://www.w3.org/1999/xlink" x="0px" y="0px"
	 viewBox="0 0 500 500" style="enable-background:new 0 0 500 500;" xml:space="preserve">
<style type="text/css">
	.st0{fill:#FFFFFF;}
	.st1{fill:#272828;}
</style>
<path class="st0" d="M422.5,250.1l56.1-97.1c-16.1-37.9-41.5-70.9-73.1-96.4h-3.1h-65.9l-12.8,22.2l-23,39.9l-9.9,17.2l-33,57.1
	l-42.9-74.3l-35.8-62h-65.9v0l35.8,62l75.9,131.4l-75.8,131.3l-35.8,62h65.9l35.8-62l42.8-74.2l33-57.1l33-57.1l33-57.1l9.9-17.2
	h65.9L389.5,193l-33,57.1l33,57.1l42.8,74.2h-65.9l-9.9-17.1l-33-57.1l-33,57.1l9.9,17.1l23.1,40l12.7,22h65.9h3.2
	c31.6-25.5,57-58.4,73.1-96.3L422.5,250.1z"/>
<path class="st1" d="M250,1.7C113.1,1.7,1.7,113.1,1.7,250c0,136.9,111.4,248.3,248.3,248.3S498.3,386.9,498.3,250
	C498.3,113.1,386.9,1.7,250,1.7z M250,487.2c-51.1,0-98.2-16.3-136.9-43.7V56.5c38.7-27.4,85.9-43.7,136.9-43.7
	C381,12.8,487.2,119,487.2,250S381,487.2,250,487.2z"/>
</svg>
